<svg xmlns="http://www.w3.org/2000/svg" viewBox="0 0 100 100"><path d="M46.9 44.2c-.4 2.5-.8 7.9 1.7 13.8 1.5 3.5 3.4 7.9 6.4 8.3 6 1 16.6-13.3 16.7-28.2 0-2-.1-19.8-13.2-26.1-11.7-5.6-25.8 1.8-32.6 10.6-9.8 12.5-6.3 29.5-.4 39.1 3.9 6.4 9.1 9.9 15.1 13.9 9.8 6.6 19.1 9.6 25.3 11-18.5 12.7-41.3 12.5-54.4 1-18-15.7-9.8-46.2 1.5-62.2C23.9 9.9 47.8-6.3 68.4 3c16.1 7.2 22.7 26.5 22.4 41.2-.4 25.8-22 40-23.7 41.1" fill="#402f2c"/><path d="M54 45.3c-.8 3.8-.3 7.6 1.2 11.1.5 1.3 1.3 3 1.9 4-.3-.1-.9-.4-1.5-.4-.3 0-.5.1-.5.1 2.5-1.1 4.6-4 6.2-6.4 10.4-15.4 4.5-45.5-19-38.2C30.2 19.4 22 30 22.4 43.1c.3 8.4 3.1 17.2 9.1 23.4 9.5 9.2 21.6 16.2 34.6 19.7l1.1.2-.9.6c-13.6 9.9-32.6 14.3-48.4 7.2-28.2-12.4-22.7-50.5-8.3-71.8C29-5.8 68.9-19.9 90.4 14.2c16.2 27.7 8.4 59.3-16.9 78.3l-1.2.9L62 77.2c.2-.1.4-.2.6-.4 12.3-8 21.1-21.9 20.2-36.9-.5-9.8-3.8-19.8-10.8-26.7C59.5 1.3 41.4 6.6 28.9 16c-9.2 6.7-16.1 15.7-20.3 26.3-7.2 17.5-7.2 39.4 12 48.7 8.9 4.2 19.2 4.6 28.8 2.2 5.7-1.4 11.3-3.8 16.3-7l.2.9C57 85.3 48.3 81.9 40.4 77c-8.3-4.9-15.7-10.6-19.5-19.8C12 37.4 19.1 16.5 39.8 8.1c17.4-6.9 32.5 3.6 36.1 21.2 2.5 10.2.8 21-4.2 30.2C68 66.6 60 76 50.9 71.7c-4.1-2.1-6.1-6.1-8-9.9-2.9-5.7-4-12.4-3.1-18.7L54 45.3z" fill="#6e5c5a"/></svg>