<?xml version="1.0" encoding="utf-8"?>
<!-- Generator: Adobe Illustrator 26.0.1, SVG Export Plug-In . SVG Version: 6.00 Build 0)  -->
<svg version="1.1" id="Layer_1" xmlns="http://www.w3.org/2000/svg" xmlns:xlink="http://www.w3.org/1999/xlink" x="0px" y="0px"
	 viewBox="0 0 100 100" style="enable-background:new 0 0 100 100;" xml:space="preserve">
<style type="text/css">
	.st0{fill:#402F2C;}
	.st1{fill:#6E5C5A;}
</style>
<g>
	<path class="st0" d="M46.9,44.2c-0.4,2.5-0.8,7.9,1.7,13.8c1.5,3.5,3.4,7.9,6.4,8.3c6,1,16.6-13.3,16.7-28.2
		c0-2-0.1-19.8-13.2-26.1c-11.7-5.6-25.8,1.8-32.6,10.6c-9.8,12.5-6.3,29.5-0.4,39.1c3.9,6.4,9.1,9.9,15.1,13.9
		c9.8,6.6,19.1,9.6,25.3,11c-18.5,12.7-41.3,12.5-54.4,1C-6.5,71.9,1.7,41.4,13,25.4C23.9,9.9,47.8-6.3,68.4,3
		c16.1,7.2,22.7,26.5,22.4,41.2c-0.4,25.8-22,40-23.7,41.1"/>
	<path class="st1" d="M54,45.3c-0.8,3.8-0.3,7.6,1.2,11.1c0.5,1.3,1.3,3,1.9,4c-0.3-0.1-0.9-0.4-1.5-0.4c-0.3,0-0.5,0.1-0.5,0.1
		c2.5-1.1,4.6-4,6.2-6.4c10.4-15.4,4.5-45.5-19-38.2C30.2,19.4,22,30,22.4,43.1c0.3,8.4,3.1,17.2,9.1,23.4
		c9.5,9.2,21.6,16.2,34.6,19.7c0,0,1.1,0.2,1.1,0.2l-0.9,0.6c-13.6,9.9-32.6,14.3-48.4,7.2C-10.3,81.8-4.8,43.7,9.6,22.4
		C29-5.8,68.9-19.9,90.4,14.2c16.2,27.7,8.4,59.3-16.9,78.3c-0.4,0.3-0.8,0.6-1.2,0.9L62,77.2c0.2-0.1,0.4-0.2,0.6-0.4
		c12.3-8,21.1-21.9,20.2-36.9C82.3,30.1,79,20.1,72,13.2C59.5,1.3,41.4,6.6,28.9,16c-9.2,6.7-16.1,15.7-20.3,26.3
		c-7.2,17.5-7.2,39.4,12,48.7c8.9,4.2,19.2,4.6,28.8,2.2c5.7-1.4,11.3-3.8,16.3-7l0.2,0.9c-8.9-1.8-17.6-5.2-25.5-10.1
		c-8.3-4.9-15.7-10.6-19.5-19.8C12,37.4,19.1,16.5,39.8,8.1c17.4-6.9,32.5,3.6,36.1,21.2c2.5,10.2,0.8,21-4.2,30.2
		C68,66.6,60,76,50.9,71.7c-4.1-2.1-6.1-6.1-8-9.9c-2.9-5.7-4-12.4-3.1-18.7C39.8,43.1,54,45.3,54,45.3L54,45.3z"/>
</g>
</svg>
